# xmcd CD database file
#
# Track frame offsets:
#	150
#	13812
#	35855
#	53340
#	70230
#	84180
#	100957
#	116550
#	137807
#	153012
#	171672
#	187515
#	205820
#	220660
#	241400
#	256867
#	274522
#	292525
#
# Disc length: 4095 seconds
#
# Revision: 0
# Processed by: cddbd v1.5.2PL0 Copyright (c) Steve Scherf et al.
# Submitted via: CDex 1.51
#
DISCID=ec0ffd12
DTITLE=Mike Durham'a West Jesmond Rhythm Kings - Chicago Buzz
DYEAR=1996
DGENRE=Jazz
TTITLE0=Mama's Gonna Slow You Down
TTITLE1=Big Boy
TTITLE2=Anywhere Sweetie Goes
TTITLE3=Sweet Emmalina
TTITLE4=2:19 Blues
TTITLE5=Down Among The Sugar Cane
TTITLE6=Chicago Buzz
TTITLE7=Breeze
TTITLE8=Brownskin Mama
TTITLE9=Candy Lips
TTITLE10=The One I Love Just Can't Be Bothered With Me
TTITLE11=Oh Sister, Ain't That Hot
TTITLE12=That's My Stuff
TTITLE13=Shout 'Em, Aunt Tillie
TTITLE14=Magnolia's Wedding Day
TTITLE15=Angry
TTITLE16=Sweet Substitute
TTITLE17=Wa Wa Wa
EXTD=YEAR: 1996
EXTT0=
EXTT1=
EXTT2=
EXTT3=
EXTT4=
EXTT5=
EXTT6=
EXTT7=
EXTT8=
EXTT9=
EXTT10=
EXTT11=
EXTT12=
EXTT13=
EXTT14=
EXTT15=
EXTT16=
EXTT17=
PLAYORDER=
